<mxfile host="app.diagrams.net" agent="Mozilla/5.0 (Windows NT 10.0; Win64; x64) AppleWebKit/537.36 (KHTML, like Gecko) Chrome/136.0.0.0 Safari/537.36" version="27.0.2">
  <diagram name="Diagrama de Clases" id="fzwB3NaBBVf3KtUA5UUX">
    <mxGraphModel grid="1" page="1" gridSize="10" guides="1" tooltips="1" connect="1" arrows="1" fold="1" pageScale="1" pageWidth="827" pageHeight="1169" math="0" shadow="0">
      <root>
        <mxCell id="0" />
        <mxCell id="1" parent="0" />
        <mxCell id="4CybQtnYR5LiSktea_Du-1" value="&lt;b&gt;AreaMetropolitana&lt;/b&gt;" style="shape=swimlane;rounded=1;whiteSpace=wrap;html=1;" vertex="1" parent="1">
          <mxGeometry x="40" y="40" width="200" height="120" as="geometry" />
        </mxCell>
        <mxCell id="4CybQtnYR5LiSktea_Du-9" value="- nombre_area&lt;br&gt;- estado_provincia&lt;br&gt;- pais" style="text;html=1;align=center;verticalAlign=middle;whiteSpace=wrap;rounded=0;" vertex="1" parent="4CybQtnYR5LiSktea_Du-1">
          <mxGeometry x="35" y="60" width="130" height="30" as="geometry" />
        </mxCell>
        <mxCell id="4CybQtnYR5LiSktea_Du-2" value="&lt;b&gt;Hotel&lt;/b&gt;" style="shape=swimlane;rounded=1;whiteSpace=wrap;html=1;" vertex="1" parent="1">
          <mxGeometry x="300" y="40" width="220" height="160" as="geometry">
            <mxRectangle x="300" y="40" width="150" height="130" as="alternateBounds" />
          </mxGeometry>
        </mxCell>
        <mxCell id="4CybQtnYR5LiSktea_Du-8" value="- nombre&lt;br&gt;- direccion&lt;br&gt;- num_habitaciones&lt;br&gt;- telefono&lt;br&gt;- num_estrellas&lt;br&gt;- precio_simple&lt;br&gt;- precio_doble" style="text;html=1;align=center;verticalAlign=middle;whiteSpace=wrap;rounded=0;" vertex="1" parent="4CybQtnYR5LiSktea_Du-2">
          <mxGeometry x="10" y="80" width="200" height="30" as="geometry" />
        </mxCell>
        <mxCell id="4CybQtnYR5LiSktea_Du-3" value="&lt;b&gt;CadenaHotel&lt;/b&gt;" style="shape=swimlane;rounded=1;whiteSpace=wrap;html=1;" vertex="1" parent="1">
          <mxGeometry x="580" y="40" width="180" height="100" as="geometry" />
        </mxCell>
        <mxCell id="4CybQtnYR5LiSktea_Du-11" value="- nombre&lt;br&gt;- director" style="text;html=1;align=center;verticalAlign=middle;whiteSpace=wrap;rounded=0;" vertex="1" parent="4CybQtnYR5LiSktea_Du-3">
          <mxGeometry x="60" y="50" width="60" height="30" as="geometry" />
        </mxCell>
        <mxCell id="4CybQtnYR5LiSktea_Du-4" value="&lt;b&gt;TarjetaCredito&lt;/b&gt;" style="shape=swimlane;rounded=1;whiteSpace=wrap;html=1;" vertex="1" parent="1">
          <mxGeometry x="330" y="300" width="160" height="80" as="geometry" />
        </mxCell>
        <mxCell id="4CybQtnYR5LiSktea_Du-10" value="- nombre" style="text;html=1;align=center;verticalAlign=middle;whiteSpace=wrap;rounded=0;" vertex="1" parent="4CybQtnYR5LiSktea_Du-4">
          <mxGeometry x="50" y="40" width="60" height="30" as="geometry" />
        </mxCell>
        <mxCell id="4CybQtnYR5LiSktea_Du-5" style="endArrow=none;html=1;" edge="1" parent="1" source="4CybQtnYR5LiSktea_Du-1" target="4CybQtnYR5LiSktea_Du-2">
          <mxGeometry relative="1" as="geometry" />
        </mxCell>
        <mxCell id="4CybQtnYR5LiSktea_Du-6" style="endArrow=none;html=1;" edge="1" parent="1" source="4CybQtnYR5LiSktea_Du-2" target="4CybQtnYR5LiSktea_Du-3">
          <mxGeometry relative="1" as="geometry" />
        </mxCell>
        <mxCell id="4CybQtnYR5LiSktea_Du-7" style="endArrow=none;html=1;" edge="1" parent="1" source="4CybQtnYR5LiSktea_Du-2" target="4CybQtnYR5LiSktea_Du-4">
          <mxGeometry relative="1" as="geometry" />
        </mxCell>
      </root>
    </mxGraphModel>
  </diagram>
</mxfile>
